<?xml version="1.0" standalone="no"?>
<!DOCTYPE svg PUBLIC "-//W3C//DTD SVG 20010904//EN"
 "http://www.w3.org/TR/2001/REC-SVG-20010904/DTD/svg10.dtd">
<svg version="1.0" xmlns="http://www.w3.org/2000/svg"
 width="1120.000000pt" height="1120.000000pt" viewBox="0 0 1120.000000 1120.000000"
 preserveAspectRatio="xMidYMid meet">
<metadata>
Created by potrace 1.14, written by Peter Selinger 2001-2017
</metadata>
<g transform="translate(0.000000,1120.000000) scale(0.100000,-0.100000)"
fill="#000000" stroke="none">
<path d="M5396 8723 c-1 -1 -29 -5 -62 -8 -66 -6 -93 -10 -144 -19 -19 -4 -47
-9 -61 -11 -53 -9 -226 -57 -279 -76 -30 -12 -59 -22 -65 -23 -12 -3 -44 -17
-110 -47 -27 -12 -52 -23 -55 -24 -7 -1 -110 -56 -132 -70 -9 -5 -36 -21 -60
-34 -43 -23 -194 -126 -214 -145 -6 -6 -26 -22 -44 -36 -100 -76 -266 -246
-371 -380 -72 -93 -209 -305 -209 -325 0 -4 -9 -19 -19 -34 -11 -15 -23 -39
-26 -54 -4 -15 -11 -27 -17 -27 -5 0 -6 -4 -3 -10 3 -5 1 -10 -6 -10 -7 0 -10
-3 -7 -6 4 -3 -7 -34 -23 -69 -54 -120 -121 -342 -144 -480 -3 -16 -8 -43 -12
-60 -11 -54 -23 -172 -28 -278 -2 -43 -5 -80 -7 -83 -4 -3 -26 -6 -163 -19
-22 -2 -64 -6 -92 -9 -127 -14 -161 -17 -203 -21 -25 -3 -63 -7 -85 -9 -22 -3
-65 -8 -95 -11 -30 -3 -66 -7 -80 -10 -14 -2 -52 -7 -85 -11 -33 -3 -73 -8
-90 -9 -16 -2 -43 -6 -60 -9 -16 -2 -52 -7 -80 -11 -27 -3 -66 -8 -85 -11 -72
-11 -86 -12 -141 -18 -31 -4 -67 -9 -80 -11 -13 -3 -39 -8 -56 -10 -32 -5 -87
-13 -128 -20 -11 -1 -42 -6 -70 -10 -27 -3 -61 -8 -75 -11 -14 -2 -54 -9 -90
-15 -36 -6 -74 -12 -85 -14 -11 -1 -40 -6 -65 -9 -25 -4 -52 -9 -60 -11 -8 -2
-31 -6 -50 -9 -36 -6 -140 -24 -175 -31 -25 -5 -58 -11 -110 -19 -23 -3 -52
-9 -65 -12 -14 -2 -50 -9 -80 -15 -30 -5 -109 -21 -175 -34 -66 -13 -135 -27
-152 -30 -18 -3 -61 -12 -95 -19 -35 -8 -76 -17 -93 -20 -16 -3 -61 -12 -100
-21 -38 -8 -79 -17 -90 -19 -80 -16 -145 -87 -145 -159 0 -58 22 -96 107 -184
297 -308 480 -497 497 -512 10 -9 27 -25 38 -37 25 -28 341 -354 868 -894 58
-60 206 -212 330 -340 124 -127 289 -298 368 -378 78 -80 142 -146 142 -147 0
0 60 -61 132 -136 73 -75 248 -254 388 -399 319 -329 308 -318 350 -331 24 -7
805 -9 2407 -7 2357 3 2372 3 2391 23 10 11 39 39 63 62 24 23 132 132 239
243 107 110 249 256 315 324 66 68 242 248 390 401 149 153 323 332 388 399
445 458 554 570 650 669 60 62 226 233 370 381 389 399 439 450 596 613 79 81
151 164 159 183 40 96 -28 207 -138 227 -14 2 -34 6 -45 8 -138 29 -266 55
-290 59 -16 2 -30 5 -30 6 0 1 -11 3 -25 6 -53 9 -76 13 -102 18 -72 15 -151
30 -240 45 -29 5 -91 16 -138 25 -47 9 -101 18 -120 20 -19 3 -35 5 -35 6 0 1
-11 3 -25 6 -14 2 -52 9 -85 14 -33 6 -71 13 -85 15 -31 4 -97 14 -130 20 -14
3 -43 7 -65 10 -22 3 -51 8 -65 11 -46 9 -75 13 -120 19 -25 2 -58 8 -75 11
-16 4 -47 7 -67 7 -21 1 -38 5 -38 10 0 4 -3 6 -7 4 -5 -3 -51 2 -103 9 -52 8
-113 16 -135 18 -22 3 -53 7 -70 10 -16 2 -75 10 -130 16 -55 6 -113 14 -130
17 -16 3 -46 6 -65 8 -32 3 -76 8 -170 20 -19 2 -60 7 -90 10 -30 3 -71 7 -90
9 -19 3 -66 7 -104 11 -37 3 -82 7 -100 10 -17 2 -62 7 -101 11 -38 3 -83 7
-100 9 -16 1 -37 3 -46 4 -13 1 -16 15 -18 69 -4 117 -14 208 -37 332 -9 47
-17 94 -19 105 -6 34 -13 57 -43 160 -90 300 -240 584 -432 820 -74 90 -224
244 -294 300 -20 17 -47 40 -60 51 -22 21 -217 155 -266 183 -269 155 -563
251 -880 287 -53 6 -379 12 -384 7z"/>
</g>
</svg>
